<svg version="1.2" baseProfile="tiny-ps" xmlns="http://www.w3.org/2000/svg" viewBox="0 0 350 314" width="350" height="314">
	<defs>
		<clipPath clipPathUnits="userSpaceOnUse" id="cp1">
			<path d="M87.73 313.59L148.82 226.47L312.78 227.24L347.33 287.74C353.35 298.81 344.74 313.45 333.23 313.59L87.73 313.59Z" />
		</clipPath>
		<clipPath clipPathUnits="userSpaceOnUse" id="cp2">
			<path d="M-6.32 -2.32L352.06 -2.32L352.06 315.6L-6.32 315.6L-6.32 -2.32Z" />
		</clipPath>
		<clipPath clipPathUnits="userSpaceOnUse" id="cp3">
			<path d="M-1 -3L379 -3L379 343L-1 343L-1 -3Z" />
		</clipPath>
		<clipPath clipPathUnits="userSpaceOnUse" id="cp4">
			<path d="M87 225L353 225L353 315L87 315L87 225Z" />
		</clipPath>
		<clipPath clipPathUnits="userSpaceOnUse" id="cp5">
			<path d="M-0.54 -2.32L352.06 -2.32L352.06 315.6L-0.54 315.6L-0.54 -2.32Z" />
		</clipPath>
		<clipPath clipPathUnits="userSpaceOnUse" id="cp6">
			<path d="M87 225L352.06 225L352.06 315L87 315L87 225Z" />
		</clipPath>
		<clipPath clipPathUnits="userSpaceOnUse" id="cp7">
			<path d="M189.26 10L312.77 227.35L207.2 216.25L125.71 72.72L163.22 6.89C169.06 -3.35 183.85 -1.12 189.26 10Z" />
		</clipPath>
		<clipPath clipPathUnits="userSpaceOnUse" id="cp8">
			<path d="M-6.32 -2.32L352.06 -2.32L352.06 315.6L-6.32 315.6L-6.32 -2.32Z" />
		</clipPath>
		<clipPath clipPathUnits="userSpaceOnUse" id="cp9">
			<path d="M-1 -29L353 -29L353 317L-1 317L-1 -29Z" />
		</clipPath>
		<clipPath clipPathUnits="userSpaceOnUse" id="cp10">
			<path d="M125 -3L313 -3L313 229L125 229L125 -3Z" />
		</clipPath>
		<clipPath clipPathUnits="userSpaceOnUse" id="cp11">
			<path d="M-0.54 -2.32L352.06 -2.32L352.06 315.6L-0.54 315.6L-0.54 -2.32Z" />
		</clipPath>
		<clipPath clipPathUnits="userSpaceOnUse" id="cp12">
			<path d="M125 -2.32L313 -2.32L313 229L125 229L125 -2.32Z" />
		</clipPath>
		<clipPath clipPathUnits="userSpaceOnUse" id="cp13">
			<path d="M13.55 313.59C3.92 313.17 -3.26 301.04 1.57 290.71L5.88 283.12L125.71 72.72L169.89 169.37L87.73 313.59L13.55 313.59Z" />
		</clipPath>
		<clipPath clipPathUnits="userSpaceOnUse" id="cp14">
			<path d="M-6.32 -2.32L352.06 -2.32L352.06 315.6L-6.32 315.6L-6.32 -2.32Z" />
		</clipPath>
		<clipPath clipPathUnits="userSpaceOnUse" id="cp15">
			<path d="M-29 -3L353 -3L353 343L-29 343L-29 -3Z" />
		</clipPath>
		<clipPath clipPathUnits="userSpaceOnUse" id="cp16">
			<path d="M-5 71L171 71L171 315L-5 315L-5 71Z" />
		</clipPath>
		<clipPath clipPathUnits="userSpaceOnUse" id="cp17">
			<path d="M-0.54 -2.32L352.06 -2.32L352.06 315.6L-0.54 315.6L-0.54 -2.32Z" />
		</clipPath>
		<clipPath clipPathUnits="userSpaceOnUse" id="cp18">
			<path d="M-0.54 71L171 71L171 315L-0.54 315L-0.54 71Z" />
		</clipPath>
		<clipPath clipPathUnits="userSpaceOnUse" id="cp19">
			<path d="M1101.36 68.49L1098.87 81.32L1097.84 86.66L1092.89 84.43C1090.7 83.44 1088.48 82.58 1086.25 81.86C1083.95 81.12 1081.62 80.5 1079.26 80.02C1076.87 79.53 1074.44 79.16 1071.98 78.91C1069.61 78.67 1067.12 78.55 1064.52 78.55C1057.62 78.55 1051.46 79.47 1046.06 81.29C1040.76 83.08 1036.12 85.76 1032.14 89.34L1032.12 89.34C1028.2 92.86 1025.25 96.95 1023.29 101.61C1021.32 106.3 1020.34 111.63 1020.34 117.61C1020.34 123.45 1021.32 128.66 1023.29 133.24C1025.24 137.76 1028.17 141.73 1032.08 145.13L1032.08 145.14C1036.05 148.59 1040.72 151.19 1046.08 152.92C1051.54 154.69 1057.75 155.58 1064.7 155.58C1066.3 155.58 1067.85 155.53 1069.34 155.41C1070.96 155.29 1072.48 155.11 1073.87 154.9L1073.87 154.89C1075.32 154.66 1076.81 154.35 1078.33 153.96C1078.79 153.85 1079.24 153.73 1079.68 153.61L1079.68 128.02L1058.52 128.02L1054.23 128.02L1054.23 123.72L1054.23 111.82L1054.23 107.53L1058.52 107.53L1100.48 107.53L1104.78 107.53L1104.78 111.82L1104.78 166.3L1104.78 169.38L1101.82 170.36C1098.76 171.38 1095.75 172.24 1092.79 172.94C1089.72 173.67 1086.56 174.28 1083.32 174.77C1080.15 175.25 1076.87 175.62 1073.46 175.86C1070.06 176.11 1066.64 176.23 1063.2 176.23C1042.16 176.23 1025.41 170.99 1012.91 160.51L1012.91 160.49C1006.55 155.15 1001.78 148.84 998.59 141.57C995.42 134.35 993.84 126.24 993.84 117.25C993.84 108.31 995.44 100.22 998.63 93.01C1001.85 85.74 1006.67 79.4 1013.07 74.01C1019.41 68.66 1026.84 64.65 1035.34 61.99C1043.71 59.38 1053.12 58.06 1063.53 58.06C1066.43 58.06 1069.36 58.18 1072.32 58.41C1075.28 58.64 1078.2 58.97 1081.07 59.41L1081.11 59.43C1084 59.89 1086.92 60.47 1089.87 61.18C1092.83 61.89 1095.7 62.7 1098.47 63.6L1102.07 64.77L1101.36 68.49Z" />
		</clipPath>
		<clipPath clipPathUnits="userSpaceOnUse" id="cp20">
			<path d="M369.47 52.45L1107.12 52.45L1107.12 181.36L369.47 181.36L369.47 52.45Z" />
		</clipPath>
		<clipPath clipPathUnits="userSpaceOnUse" id="cp21">
			<path d="M407.74 58.53C419.48 58.53 429.83 59.72 438.78 62.11C447.93 64.55 455.61 68.23 461.81 73.17L461.81 73.18C468.12 78.18 472.86 84.43 476.02 91.91C479.12 99.28 480.68 107.78 480.68 117.41C480.68 126.66 479.05 134.91 475.81 142.16C472.54 149.47 467.64 155.69 461.12 160.79L461.12 160.8C454.72 165.83 446.96 169.59 437.87 172.09C428.95 174.54 418.79 175.76 407.39 175.76L375 175.76L375 58.53L407.74 58.53ZM400.62 79.33L400.62 154.49L410.22 154.49C424.35 154.49 435.27 151.16 442.94 144.51C446.67 141.28 449.46 137.38 451.33 132.83C453.22 128.2 454.17 122.82 454.17 116.67C454.17 104.38 450.6 95.13 443.47 88.89L443.47 88.89C439.85 85.77 435.36 83.4 429.98 81.81C424.41 80.16 417.88 79.33 410.37 79.33L400.62 79.33ZM570 58.53L570 78.86L521.05 78.86L521.05 104.71L567.39 104.71L567.39 125.51L521.05 125.51L521.05 154.64L571.61 154.64L571.61 175.76L495.43 175.76L495.43 58.53L570 58.53ZM615 58.53L615 154.49L663.62 154.49L663.62 175.76L589.37 175.76L589.37 58.53L615 58.53ZM737.06 58.53L737.06 79.8L703.01 79.8L703.01 175.76L677.2 175.76L677.2 79.8L643.15 79.8L643.15 58.53L737.06 58.53ZM800.9 58.53L802.03 61.1L849.77 169.73L852.42 175.76L824.58 175.76L823.47 173.12L812.85 147.9L760.56 147.9L749.93 173.12L748.82 175.76L722.14 175.76L724.85 169.72L773.44 61.08L774.58 58.53L800.9 58.53ZM769.78 127.09L804.33 127.09L787.33 86.96L769.78 127.09ZM886.94 150.42L886.94 175.76L860.26 175.76L860.26 150.42L886.94 150.42ZM935.58 58.53C942.5 58.53 948.69 59.17 954.12 60.44C959.73 61.75 964.55 63.75 968.58 66.43C972.79 69.22 975.97 72.63 978.12 76.64C980.26 80.65 981.34 85.17 981.34 90.19C981.34 93.7 980.76 96.97 979.61 100.01C978.45 103.08 976.72 105.86 974.43 108.34C972.42 110.53 970.01 112.42 967.21 114.01L967.61 114.2C971.29 116.02 974.4 118.25 976.95 120.89C979.58 123.59 981.56 126.64 982.88 130.07C984.19 133.46 984.85 137.15 984.85 141.12C984.85 146.61 983.71 151.55 981.42 155.92C979.14 160.29 975.76 164.01 971.29 167.05C966.98 169.98 961.79 172.18 955.74 173.64C949.85 175.05 943.19 175.76 935.75 175.76L898.66 175.76L898.66 58.53L935.58 58.53ZM924.11 125.36L924.11 154.8L932.74 154.8C937.4 154.8 941.45 154.42 944.88 153.67C948.13 152.96 950.8 151.93 952.89 150.58C954.79 149.36 956.21 147.88 957.12 146.15C958.05 144.39 958.52 142.27 958.52 139.82C958.52 137.39 958.09 135.32 957.23 133.61C956.39 131.94 955.11 130.52 953.39 129.37L953.37 129.37C951.46 128.08 949.03 127.1 946.09 126.43C942.96 125.71 939.22 125.36 934.88 125.36L924.11 125.36ZM924.11 105.02L932.25 105.02C936.35 105.02 939.92 104.67 942.95 103.99C945.81 103.34 948.21 102.38 950.13 101.13C951.85 100.01 953.12 98.68 953.95 97.14C954.78 95.61 955.19 93.79 955.19 91.68C955.19 89.61 954.8 87.84 954.04 86.38C953.29 84.96 952.12 83.72 950.52 82.67L950.51 82.66C948.75 81.5 946.53 80.61 943.86 79.99C941.03 79.35 937.69 79.02 933.85 79.02L924.11 79.02L924.11 105.02Z" />
		</clipPath>
		<clipPath clipPathUnits="userSpaceOnUse" id="cp22">
			<path d="M369.47 52.45L1107.12 52.45L1107.12 181.36L369.47 181.36L369.47 52.45Z" />
		</clipPath>
	</defs>
	<style>
		tspan { white-space:pre }
		.shp0 { display: none;fill: #1c629c } 
		.shp1 { fill: #000000 } 
		.shp2 { fill: #1c629c } 
		.shp3 { fill: #31c3ff } 
		.shp4 { fill: #ff5d16 } 
	</style>
	<g id="Layer 1">
		<path id="&lt;Path&gt;" class="shp0" d="M1271 471L-65 471L-65 -105L1271 -105L1271 471Z" />
		<g id="&lt;Clip Group&gt;" clip-path="url(#cp1)">
			<g id="&lt;Clip Group&gt;" clip-path="url(#cp2)" style="display: none">
				<g id="&lt;Group&gt;">
					<g id="&lt;Clip Group&gt;" clip-path="url(#cp3)">
						<g id="&lt;Clip Group&gt;" clip-path="url(#cp4)">
							<path id="&lt;Path&gt;" class="shp1" d="M58.83 197.57L378.21 197.57L378.21 342.49L58.83 342.49L58.83 197.57Z" />
							<path id="&lt;Path&gt;" class="shp1" d="M87 225L353 225L353 315L87 315L87 225Z" />
						</g>
						<g id="&lt;Clip Group&gt;" clip-path="url(#cp5)">
							<g id="&lt;Clip Group&gt;" clip-path="url(#cp6)">
								<path id="&lt;Path&gt;" class="shp1" d="M-29.44 -31.22L380.96 -31.22L380.96 344.5L-29.44 344.5L-29.44 -31.22Z" />
								<path id="&lt;Path&gt;" class="shp1" d="M87 225L352.06 225L352.06 315L87 315L87 225Z" />
							</g>
							<path id="&lt;Path&gt;" class="shp1" d="M-0.54 -2.32L352.06 -2.32L352.06 315.6L-0.54 315.6L-0.54 -2.32Z" />
						</g>
						<path id="&lt;Path&gt;" class="shp1" d="M-1 -3L379 -3L379 343L-1 343L-1 -3Z" />
					</g>
				</g>
				<path id="&lt;Path&gt;" class="shp2" d="M-6.32 -2.32L352.06 -2.32L352.06 315.6L-6.32 315.6L-6.32 -2.32Z" />
			</g>
			<path id="&lt;Path&gt;" class="shp2" d="M87.73 313.59L148.82 226.47L312.78 227.24L347.33 287.74C353.35 298.81 344.74 313.45 333.23 313.59L87.73 313.59Z" />
		</g>
		<g id="&lt;Clip Group&gt;" clip-path="url(#cp7)">
			<g id="&lt;Clip Group&gt;" clip-path="url(#cp8)" style="display: none">
				<g id="&lt;Group&gt;">
					<g id="&lt;Clip Group&gt;" clip-path="url(#cp9)">
						<g id="&lt;Clip Group&gt;" clip-path="url(#cp10)">
							<path id="&lt;Path&gt;" class="shp1" d="M96.81 -28.59L341.67 -28.59L341.67 256.26L96.81 256.26L96.81 -28.59Z" />
							<path id="&lt;Path&gt;" class="shp1" d="M125 -3L313 -3L313 229L125 229L125 -3Z" />
						</g>
						<g id="&lt;Clip Group&gt;" clip-path="url(#cp11)">
							<g id="&lt;Clip Group&gt;" clip-path="url(#cp12)">
								<path id="&lt;Path&gt;" class="shp1" d="M-29.44 -31.22L380.96 -31.22L380.96 344.5L-29.44 344.5L-29.44 -31.22Z" />
								<path id="&lt;Path&gt;" class="shp1" d="M125 -2.32L313 -2.32L313 229L125 229L125 -2.32Z" />
							</g>
							<path id="&lt;Path&gt;" class="shp1" d="M-0.54 -2.32L352.06 -2.32L352.06 315.6L-0.54 315.6L-0.54 -2.32Z" />
						</g>
						<path id="&lt;Path&gt;" class="shp1" d="M-1 -29L353 -29L353 317L-1 317L-1 -29Z" />
					</g>
				</g>
				<path id="&lt;Path&gt;" class="shp1" d="M-6.32 -2.32L352.06 -2.32L352.06 315.6L-6.32 315.6L-6.32 -2.32Z" />
			</g>
			<path id="&lt;Path&gt;" class="shp3" d="M189.26 10L312.77 227.35L207.2 216.25L125.71 72.72L163.22 6.89C169.06 -3.35 183.85 -1.12 189.26 10Z" />
		</g>
		<g id="&lt;Clip Group&gt;" clip-path="url(#cp13)">
			<g id="&lt;Clip Group&gt;" clip-path="url(#cp14)" style="display: none">
				<g id="&lt;Group&gt;">
					<g id="&lt;Clip Group&gt;" clip-path="url(#cp15)">
						<g id="&lt;Clip Group&gt;" clip-path="url(#cp16)">
							<path id="&lt;Path&gt;" class="shp1" d="M-28.88 43.82L198.8 43.82L198.8 342.49L-28.88 342.49L-28.88 43.82Z" />
							<path id="&lt;Path&gt;" class="shp1" d="M-5 71L171 71L171 315L-5 315L-5 71Z" />
						</g>
						<g id="&lt;Clip Group&gt;" clip-path="url(#cp17)">
							<g id="&lt;Clip Group&gt;" clip-path="url(#cp18)">
								<path id="&lt;Path&gt;" class="shp1" d="M-29.44 -31.22L380.96 -31.22L380.96 344.5L-29.44 344.5L-29.44 -31.22Z" />
								<path id="&lt;Path&gt;" class="shp1" d="M-0.54 71L171 71L171 315L-0.54 315L-0.54 71Z" />
							</g>
							<path id="&lt;Path&gt;" class="shp1" d="M-0.54 -2.32L352.06 -2.32L352.06 315.6L-0.54 315.6L-0.54 -2.32Z" />
						</g>
						<path id="&lt;Path&gt;" class="shp1" d="M-29 -3L353 -3L353 343L-29 343L-29 -3Z" />
					</g>
				</g>
				<path id="&lt;Path&gt;" class="shp1" d="M-6.32 -2.32L352.06 -2.32L352.06 315.6L-6.32 315.6L-6.32 -2.32Z" />
			</g>
			<path id="&lt;Path&gt;" class="shp4" d="M13.55 313.59C3.92 313.17 -3.26 301.04 1.57 290.71L5.88 283.12L125.71 72.72L169.89 169.37L87.73 313.59L13.55 313.59Z" />
		</g>
		<g id="&lt;Group&gt;" style="display: none">
			<g id="&lt;Clip Group&gt;" clip-path="url(#cp19)">
				<g id="&lt;Clip Group&gt;" clip-path="url(#cp20)">
					<path id="&lt;Path&gt;" class="shp1" d="M958.03 22.25L1140.58 22.25L1140.58 212.04L958.03 212.04L958.03 22.25Z" />
					<path id="&lt;Path&gt;" class="shp1" d="M369.47 52.45L1107.12 52.45L1107.12 181.36L369.47 181.36L369.47 52.45Z" />
				</g>
				<path id="&lt;Path&gt;" class="shp1" d="M1101.36 68.49L1098.87 81.32L1097.84 86.66L1092.89 84.43C1090.7 83.44 1088.48 82.58 1086.25 81.86C1083.95 81.12 1081.62 80.5 1079.26 80.02C1076.87 79.53 1074.44 79.16 1071.98 78.91C1069.61 78.67 1067.12 78.55 1064.52 78.55C1057.62 78.55 1051.46 79.47 1046.06 81.29C1040.76 83.08 1036.12 85.76 1032.14 89.34L1032.12 89.34C1028.2 92.86 1025.25 96.95 1023.29 101.61C1021.32 106.3 1020.34 111.63 1020.34 117.61C1020.34 123.45 1021.32 128.66 1023.29 133.24C1025.24 137.76 1028.17 141.73 1032.08 145.13L1032.08 145.14C1036.05 148.59 1040.72 151.19 1046.08 152.92C1051.54 154.69 1057.75 155.58 1064.7 155.58C1066.3 155.58 1067.85 155.53 1069.34 155.41C1070.96 155.29 1072.48 155.11 1073.87 154.9L1073.87 154.89C1075.32 154.66 1076.81 154.35 1078.33 153.96C1078.79 153.85 1079.24 153.73 1079.68 153.61L1079.68 128.02L1058.52 128.02L1054.23 128.02L1054.23 123.72L1054.23 111.82L1054.23 107.53L1058.52 107.53L1100.48 107.53L1104.78 107.53L1104.78 111.82L1104.78 166.3L1104.78 169.38L1101.82 170.36C1098.76 171.38 1095.75 172.24 1092.79 172.94C1089.72 173.67 1086.56 174.28 1083.32 174.77C1080.15 175.25 1076.87 175.62 1073.46 175.86C1070.06 176.11 1066.64 176.23 1063.2 176.23C1042.16 176.23 1025.41 170.99 1012.91 160.51L1012.91 160.49C1006.55 155.15 1001.78 148.84 998.59 141.57C995.42 134.35 993.84 126.24 993.84 117.25C993.84 108.31 995.44 100.22 998.63 93.01C1001.85 85.74 1006.67 79.4 1013.07 74.01C1019.41 68.66 1026.84 64.65 1035.34 61.99C1043.71 59.38 1053.12 58.06 1063.53 58.06C1066.43 58.06 1069.36 58.18 1072.32 58.41C1075.28 58.64 1078.2 58.97 1081.07 59.41L1081.11 59.43C1084 59.89 1086.92 60.47 1089.87 61.18C1092.83 61.89 1095.7 62.7 1098.47 63.6L1102.07 64.77L1101.36 68.49Z" />
			</g>
			<g id="&lt;Clip Group&gt;" clip-path="url(#cp21)">
				<g id="&lt;Clip Group&gt;" clip-path="url(#cp22)">
					<path id="&lt;Path&gt;" class="shp1" d="M339.19 22.72L1020.65 22.72L1020.65 211.57L339.19 211.57L339.19 22.72Z" />
					<path id="&lt;Path&gt;" class="shp1" d="M369.47 52.45L1107.12 52.45L1107.12 181.36L369.47 181.36L369.47 52.45Z" />
				</g>
				<path id="&lt;Compound Path&gt;" fill-rule="evenodd" class="shp1" d="M407.74 58.53C419.48 58.53 429.83 59.72 438.78 62.11C447.93 64.55 455.61 68.23 461.81 73.17L461.81 73.18C468.12 78.18 472.86 84.43 476.02 91.91C479.12 99.28 480.68 107.78 480.68 117.41C480.68 126.66 479.05 134.91 475.81 142.16C472.54 149.47 467.64 155.69 461.12 160.79L461.12 160.8C454.72 165.83 446.96 169.59 437.87 172.09C428.95 174.54 418.79 175.76 407.39 175.76L375 175.76L375 58.53L407.74 58.53ZM400.62 79.33L400.62 154.49L410.22 154.49C424.35 154.49 435.27 151.16 442.94 144.51C446.67 141.28 449.46 137.38 451.33 132.83C453.22 128.2 454.17 122.82 454.17 116.67C454.17 104.38 450.6 95.13 443.47 88.89L443.47 88.89C439.85 85.77 435.36 83.4 429.98 81.81C424.41 80.16 417.88 79.33 410.37 79.33L400.62 79.33ZM570 58.53L570 78.86L521.05 78.86L521.05 104.71L567.39 104.71L567.39 125.51L521.05 125.51L521.05 154.64L571.61 154.64L571.61 175.76L495.43 175.76L495.43 58.53L570 58.53ZM615 58.53L615 154.49L663.62 154.49L663.62 175.76L589.37 175.76L589.37 58.53L615 58.53ZM737.06 58.53L737.06 79.8L703.01 79.8L703.01 175.76L677.2 175.76L677.2 79.8L643.15 79.8L643.15 58.53L737.06 58.53ZM800.9 58.53L802.03 61.1L849.77 169.73L852.42 175.76L824.58 175.76L823.47 173.12L812.85 147.9L760.56 147.9L749.93 173.12L748.82 175.76L722.14 175.76L724.85 169.72L773.44 61.08L774.58 58.53L800.9 58.53ZM769.78 127.09L804.33 127.09L787.33 86.96L769.78 127.09ZM886.94 150.42L886.94 175.76L860.26 175.76L860.26 150.42L886.94 150.42ZM935.58 58.53C942.5 58.53 948.69 59.17 954.12 60.44C959.73 61.75 964.55 63.75 968.58 66.43C972.79 69.22 975.97 72.63 978.12 76.64C980.26 80.65 981.34 85.17 981.34 90.19C981.34 93.7 980.76 96.97 979.61 100.01C978.45 103.08 976.72 105.86 974.43 108.34C972.42 110.53 970.01 112.42 967.21 114.01L967.61 114.2C971.29 116.02 974.4 118.25 976.95 120.89C979.58 123.59 981.56 126.64 982.88 130.07C984.19 133.46 984.85 137.15 984.85 141.12C984.85 146.61 983.71 151.55 981.42 155.92C979.14 160.29 975.76 164.01 971.29 167.05C966.98 169.98 961.79 172.18 955.74 173.64C949.85 175.05 943.19 175.76 935.75 175.76L898.66 175.76L898.66 58.53L935.58 58.53ZM924.11 125.36L924.11 154.8L932.74 154.8C937.4 154.8 941.45 154.42 944.88 153.67C948.13 152.96 950.8 151.93 952.89 150.58C954.79 149.36 956.21 147.88 957.12 146.15C958.05 144.39 958.52 142.27 958.52 139.82C958.52 137.39 958.09 135.32 957.23 133.61C956.39 131.94 955.11 130.52 953.39 129.37L953.37 129.37C951.46 128.08 949.03 127.1 946.09 126.43C942.96 125.71 939.22 125.36 934.88 125.36L924.11 125.36ZM924.11 105.02L932.25 105.02C936.35 105.02 939.92 104.67 942.95 103.99C945.81 103.34 948.21 102.38 950.13 101.13C951.85 100.01 953.12 98.68 953.95 97.14C954.78 95.61 955.19 93.79 955.19 91.68C955.19 89.61 954.8 87.84 954.04 86.38C953.29 84.96 952.12 83.72 950.52 82.67L950.51 82.66C948.75 81.5 946.53 80.61 943.86 79.99C941.03 79.35 937.69 79.02 933.85 79.02L924.11 79.02L924.11 105.02Z" />
			</g>
		</g>
		<g id="&lt;Group&gt;" style="display: none">
			<path id="&lt;Compound Path&gt;" fill-rule="evenodd" class="shp1" d="M1052.5 263.63L1052.5 211.31L1068.36 211.31L1077.75 246.99L1087.01 211.31L1102.92 211.31L1102.92 263.63L1093.13 263.63L1093.09 222.44L1082.77 263.63L1072.59 263.63L1062.33 222.44L1062.29 263.63L1052.5 263.63ZM993.62 237.78C993.62 232.45 994.42 227.96 996.02 224.33C997.2 221.67 998.83 219.27 1000.89 217.16C1002.94 215.03 1005.2 213.46 1007.65 212.43C1010.91 211.06 1014.68 210.36 1018.93 210.36C1026.66 210.36 1032.82 212.76 1037.46 217.54C1042.09 222.34 1044.4 229 1044.4 237.54C1044.4 246 1042.1 252.63 1037.51 257.4C1032.92 262.19 1026.77 264.57 1019.08 264.57C1011.3 264.57 1005.1 262.2 1000.51 257.44C995.92 252.69 993.62 246.13 993.62 237.78ZM1004.5 237.43C1004.5 243.36 1005.88 247.86 1008.63 250.92C1011.36 253.97 1014.84 255.52 1019.06 255.52C1023.29 255.52 1026.74 253.99 1029.46 250.96C1032.16 247.91 1033.52 243.36 1033.52 237.28C1033.52 231.28 1032.2 226.8 1029.56 223.85C1026.93 220.89 1023.43 219.42 1019.06 219.42C1014.7 219.42 1011.18 220.92 1008.51 223.9C1005.84 226.89 1004.5 231.4 1004.5 237.43ZM943.04 211.31L962.31 211.31C966.66 211.31 969.97 211.64 972.25 212.3C975.3 213.21 977.93 214.81 980.12 217.13C982.31 219.43 983.96 222.25 985.11 225.6C986.24 228.94 986.81 233.07 986.81 237.97C986.81 242.27 986.27 245.98 985.2 249.1C983.9 252.91 982.04 255.99 979.62 258.34C977.79 260.13 975.32 261.52 972.21 262.52C969.88 263.26 966.78 263.63 962.89 263.63L943.04 263.63L943.04 211.31ZM953.64 220.14L953.64 254.78L961.49 254.78C964.43 254.78 966.55 254.61 967.86 254.28C969.56 253.86 970.98 253.13 972.1 252.11C973.23 251.07 974.15 249.4 974.86 247.06C975.57 244.73 975.93 241.53 975.93 237.47C975.93 233.44 975.57 230.34 974.86 228.17C974.15 226.01 973.15 224.32 971.87 223.11C970.59 221.9 968.97 221.07 967 220.65C965.54 220.32 962.65 220.14 958.36 220.14L953.64 220.14ZM894.31 263.63L894.31 211.31L933.04 211.31L933.04 220.14L904.9 220.14L904.9 231.77L931.06 231.77L931.06 240.61L904.9 240.61L904.9 254.78L934.06 254.78L934.06 263.63L894.31 263.63ZM845.57 263.63L845.57 211.31L884.3 211.31L884.3 220.14L856.17 220.14L856.17 231.77L882.32 231.77L882.32 240.61L856.17 240.61L856.17 254.78L885.32 254.78L885.32 263.63L845.57 263.63ZM792.8 263.63L792.8 211.31L815.05 211.31C820.64 211.31 824.71 211.78 827.24 212.72C829.79 213.65 831.81 215.33 833.33 217.73C834.86 220.14 835.62 222.88 835.62 225.97C835.62 229.9 834.47 233.14 832.18 235.7C829.87 238.26 826.44 239.87 821.86 240.53C824.13 241.86 826.01 243.33 827.48 244.92C828.98 246.52 830.97 249.35 833.48 253.42L839.86 263.63L827.23 263.63L819.65 252.2C816.94 248.14 815.08 245.59 814.07 244.53C813.07 243.48 812.01 242.75 810.89 242.36C809.75 241.97 807.97 241.78 805.54 241.78L803.4 241.78L803.4 263.63L792.8 263.63ZM803.4 233.45L811.22 233.45C816.28 233.45 819.44 233.23 820.71 232.8C821.95 232.38 822.95 231.63 823.67 230.59C824.38 229.54 824.73 228.23 824.73 226.65C824.73 224.89 824.26 223.47 823.32 222.38C822.38 221.3 821.05 220.61 819.35 220.33C818.49 220.21 815.92 220.14 811.65 220.14L803.4 220.14L803.4 233.45ZM748.17 263.63L748.17 211.31L784.12 211.31L784.12 220.14L758.77 220.14L758.77 232.57L780.68 232.57L780.68 241.41L758.77 241.41L758.77 263.63L748.17 263.63ZM676.36 246.67L686.66 245.65C687.28 249.1 688.52 251.62 690.41 253.24C692.3 254.86 694.85 255.66 698.04 255.66C701.43 255.66 703.99 254.94 705.71 253.5C707.43 252.07 708.29 250.38 708.29 248.46C708.29 247.22 707.92 246.17 707.2 245.3C706.48 244.43 705.22 243.67 703.41 243.04C702.18 242.6 699.38 241.85 695 240.75C689.36 239.34 685.41 237.61 683.13 235.55C679.93 232.67 678.34 229.15 678.34 225C678.34 222.33 679.08 219.81 680.58 217.49C682.09 215.17 684.26 213.41 687.1 212.19C689.94 210.96 693.34 210.36 697.37 210.36C703.9 210.36 708.84 211.8 712.14 214.71C715.45 217.63 717.18 221.5 717.35 226.36L706.75 226.73C706.31 224.02 705.34 222.09 703.87 220.9C702.39 219.72 700.18 219.13 697.23 219.13C694.18 219.13 691.8 219.76 690.08 221.03C688.97 221.84 688.41 222.93 688.41 224.29C688.41 225.53 688.94 226.59 689.98 227.46C691.31 228.6 694.54 229.77 699.67 230.98C704.79 232.19 708.58 233.46 711.03 234.75C713.48 236.05 715.41 237.82 716.8 240.07C718.19 242.33 718.88 245.1 718.88 248.4C718.88 251.4 718.05 254.21 716.38 256.83C714.71 259.45 712.37 261.4 709.32 262.67C706.28 263.93 702.47 264.57 697.94 264.57C691.32 264.57 686.24 263.05 682.7 260C679.16 256.95 677.05 252.5 676.36 246.67ZM658.47 263.63L658.47 211.31L669.06 211.31L669.06 263.63L658.47 263.63ZM585.77 211.31L605.03 211.31C609.37 211.31 612.69 211.64 614.97 212.3C618.02 213.21 620.65 214.81 622.83 217.13C625.03 219.43 626.68 222.25 627.82 225.6C628.96 228.94 629.53 233.07 629.53 237.97C629.53 242.27 629 245.98 627.92 249.1C626.62 252.91 624.76 255.99 622.33 258.34C620.51 260.13 618.04 261.52 614.94 262.52C612.6 263.26 609.5 263.63 605.6 263.63L585.77 263.63L585.77 211.31ZM596.36 220.14L596.36 254.78L604.22 254.78C607.15 254.78 609.27 254.61 610.57 254.28C612.29 253.86 613.7 253.13 614.82 252.11C615.95 251.07 616.87 249.4 617.57 247.06C618.29 244.73 618.64 241.53 618.64 237.47C618.64 233.44 618.29 230.34 617.57 228.17C616.87 226.01 615.87 224.32 614.6 223.11C613.31 221.9 611.69 221.07 609.72 220.65C608.25 220.32 605.37 220.14 601.08 220.14L596.36 220.14ZM533 211.31L543.59 211.31L543.59 239.66C543.59 244.16 543.72 247.07 543.98 248.4C544.43 250.55 545.49 252.27 547.17 253.56C548.87 254.87 551.17 255.52 554.09 255.52C557.05 255.52 559.29 254.9 560.8 253.67C562.31 252.45 563.2 250.94 563.52 249.16C563.82 247.37 563.97 244.4 563.97 240.27L563.97 211.31L574.57 211.31L574.57 238.82C574.57 245.1 574.3 249.54 573.72 252.13C573.14 254.74 572.1 256.93 570.57 258.71C569.04 260.5 567 261.92 564.44 262.98C561.87 264.04 558.53 264.57 554.4 264.57C549.43 264.57 545.65 264 543.08 262.84C540.51 261.69 538.48 260.19 536.98 258.34C535.48 256.48 534.51 254.56 534.03 252.53C533.33 249.53 533 245.1 533 239.24L533 211.31ZM473.97 237.78C473.97 232.45 474.77 227.96 476.37 224.33C477.54 221.67 479.18 219.27 481.23 217.16C483.29 215.03 485.55 213.46 488 212.43C491.26 211.06 495.03 210.36 499.29 210.36C507.01 210.36 513.17 212.76 517.81 217.54C522.44 222.34 524.75 229 524.75 237.54C524.75 246 522.45 252.63 517.86 257.4C513.27 262.19 507.11 264.57 499.43 264.57C491.66 264.57 485.45 262.2 480.86 257.44C476.27 252.69 473.97 246.13 473.97 237.78ZM484.86 237.43C484.86 243.36 486.23 247.86 488.97 250.92C491.71 253.97 495.19 255.52 499.41 255.52C503.63 255.52 507.09 253.99 509.81 250.96C512.51 247.91 513.86 243.36 513.86 237.28C513.86 231.28 512.55 226.8 509.9 223.85C507.27 220.89 503.78 219.42 499.41 219.42C495.05 219.42 491.53 220.92 488.87 223.9C486.2 226.89 484.86 231.4 484.86 237.43ZM431.82 263.63L431.82 211.75L442.42 211.75L442.42 254.78L468.65 254.78L468.65 263.63L431.82 263.63ZM412.23 244.34L422.46 247.47C420.89 253.24 418.26 257.5 414.61 260.31C410.96 263.1 406.33 264.5 400.72 264.5C393.76 264.5 388.05 262.13 383.57 257.38C379.1 252.63 376.86 246.13 376.86 237.89C376.86 229.18 379.12 222.42 383.61 217.59C388.1 212.77 394.02 210.36 401.35 210.36C407.75 210.36 412.95 212.26 416.95 216.04C419.34 218.28 421.12 221.5 422.31 225.7L411.86 228.19C411.24 225.48 409.95 223.34 407.99 221.77C406.02 220.2 403.63 219.42 400.83 219.42C396.95 219.42 393.79 220.8 391.37 223.6C388.95 226.37 387.75 230.88 387.75 237.11C387.75 243.71 388.94 248.43 391.32 251.23C393.7 254.04 396.8 255.44 400.61 255.44C403.42 255.44 405.85 254.55 407.87 252.77C409.89 250.97 411.35 248.17 412.23 244.34Z" />
		</g>
	</g>
</svg>